Coordinates
version=1
nRows=29
nColumns=22
inDegrees=yes

Units are S.I. units (second, meters, Newtons, ...)
If the header above contains a line with 'inDegrees', this indicates whether rotational values are in degrees (yes) or radians (no).

endheader
time	pelvis_tilt	pelvis_list	pelvis_rotation	pelvis_tx	pelvis_ty	pelvis_tz	hip_flexion_r	hip_adduction_r	hip_rotation_r	knee_angle_r	ankle_angle_r	subtalar_angle_r	hip_flexion_l	hip_adduction_l	hip_rotation_l	knee_angle_l	ankle_angle_l	subtalar_angle_l	lumbar_extension	lumbar_bending	lumbar_rotation
      4.54000000	      7.12731741	      6.02419753	    177.27038819	     -0.23601993	      0.87964091	     -0.41107555	     11.01110425	      4.51269140	      3.42017653	     -3.68218590	      5.54193231	      0.32548364	     17.64217264	    -12.88380622	      0.17231758	    -64.86396023	      0.74999166	      8.50741654	     -3.65835265	     12.91110859	     12.31382773
      4.55000000	      6.93650149	      5.88934190	    177.17599994	     -0.24231843	      0.88048622	     -0.41304457	     10.29824197	      4.50369044	      3.58572799	     -3.57296573	      5.87909811	      0.13929025	     18.82759365	    -13.38132696	     -1.00571109	    -65.22902942	      1.89350748	      7.93964162	     -3.86109567	     12.73167067	     12.50776396
      4.56000000	      6.76634499	      5.74159671	    177.05965363	     -0.24864375	      0.88126996	     -0.41491671	      9.61798395	      4.47317344	      3.75959038	     -3.48159030	      6.22840273	     -0.01391627	     19.95749303	    -13.82689221	     -2.15481669	    -65.33285660	      2.96032576	      7.42561322	     -4.02690003	     12.53700204	     12.72190942
      4.57000000	      6.60579731	      5.57966088	    176.93330593	     -0.25498761	      0.88200192	     -0.41666837	      8.96571731	      4.41749994	      3.91522600	     -3.41998504	      6.57855330	     -0.15514786	     21.01883563	    -14.20566075	     -3.25783743	    -65.17261612	      3.95546107	      6.92378422	     -4.16935910	     12.32576982	     12.93401119
      4.58000000	      6.45980408	      5.41910800	    176.77921629	     -0.26135222	      0.88266001	     -0.41831915	      8.34719852	      4.35591966	      4.08856298	     -3.39186589	      6.94112006	     -0.24150669	     22.01224653	    -14.54483648	     -4.33102282	    -64.75769975	      4.83703616	      6.59855661	     -4.28649427	     12.11822395	     13.17246928
      4.59000000	      6.29295658	      5.23500567	    176.64979584	     -0.26774904	      0.88329181	     -0.41979964	      7.69275726	      4.25090847	      4.25110727	     -3.33672699	      7.31400719	     -0.39886336	     22.90793680	    -14.78318579	     -5.31675403	    -64.07681919	      5.61909636	      6.06038343	     -4.41074093	     11.88089624	     13.34193688
      4.60000000	      6.14661148	      5.07062911	    176.49385651	     -0.27413638	      0.88380527	     -0.42119751	      7.09433503	      4.16267437	      4.39898165	     -3.34293858	      7.68837266	     -0.47789994	     23.74793286	    -15.00514902	     -6.24818138	    -63.16326504	      6.30981071	      5.82651132	     -4.51080680	     11.66323799	     13.55427936
      4.61000000	      5.96622466	      4.89129816	    176.35135559	     -0.28060061	      0.88430559	     -0.42243549	      6.43106265	      4.04034302	      4.54891622	     -3.30128057	      8.08376481	     -0.60029806	     24.45735155	    -15.13710546	     -7.08214355	    -61.97893460	      6.87403247	      5.51101404	     -4.63169236	     11.42404076	     13.76137792
      4.62000000	      5.77264222	      4.73079395	    176.23476593	     -0.28709152	      0.88472331	     -0.42350825	      5.74144790	      3.92084690	      4.67914825	     -3.24240297	      8.47368933	     -0.73168768	     25.08604443	    -15.22339982	     -7.78869335	    -60.56738850	      7.36157810	      5.23413105	     -4.75758485	     11.20495731	     13.91740258
      4.63000000	      5.59018942	      4.57377696	    176.11205687	     -0.29357431	      0.88502536	     -0.42448252	      5.08513744	      3.79771957	      4.79769945	     -3.22131165	      8.87300294	     -0.83359704	     25.64461030	    -15.26517185	     -8.38867720	    -58.92780568	      7.78317575	      5.08248293	     -4.86885219	     10.98067308	     14.07395996
      4.64000000	      5.39017898	      4.43539953	    176.01632628	     -0.30009931	      0.88525862	     -0.42528469	      4.37504047	      3.67519309	      4.90233587	     -3.14382758	      9.27513661	     -0.94529845	     26.10948045	    -15.25694831	     -8.82650796	    -57.06370172	      8.11919619	      4.94432322	     -4.99186990	     10.77386663	     14.21571415
      4.65000000	      5.19702262	      4.31936594	    175.93789147	     -0.30662736	      0.88537941	     -0.42594458	      3.66196015	      3.56265667	      4.99476580	     -3.05284773	      9.67671240	     -1.05312970	     26.51213475	    -15.21360193	     -9.09111407	    -54.99838856	      8.39486522	      4.83188381	     -5.10421661	     10.58736811	     14.34412836
      4.66000000	      5.01353049	      4.23199500	    175.87293820	     -0.31314979	      0.88539131	     -0.42647004	      2.94579314	      3.46862394	      5.07481470	     -2.94284451	     10.07342394	     -1.15827490	     26.85254328	    -15.15038787	     -9.18234480	    -52.73840688	      8.60497847	      4.72371593	     -5.20788895	     10.42661655	     14.45491773
      4.67000000	      4.85514471	      4.17491913	    175.82051206	     -0.31966807	      0.88527065	     -0.42685986	      2.24780411	      3.39684346	      5.13135862	     -2.82295521	     10.46597908	     -1.25746531	     27.14964970	    -15.07670019	     -9.09363505	    -50.30158787	      8.75399028	      4.60281775	     -5.28488453	     10.29681927	     14.55881898
      4.68000000	      4.72538196	      4.15023762	    175.77558142	     -0.32617142	      0.88502011	     -0.42714657	      1.57590188	      3.35404913	      5.16845796	     -2.69890855	     10.85331404	     -1.35308207	     27.40571079	    -15.00523538	     -8.82321566	    -47.69892042	      8.83912949	      4.44408934	     -5.33331356	     10.19487383	     14.66431832
      4.69000000	      4.61377730	      4.16686707	    175.72538959	     -0.33267111	      0.88466287	     -0.42732747	      0.91474617	      3.34698451	      5.23031669	     -2.56599688	     11.22969356	     -1.45981664	     27.60524822	    -14.96245129	     -8.40347183	    -44.94935853	      8.87808247	      4.18252840	     -5.37053552	     10.13630841	     14.77718348
      4.70000000	      4.55631810	      4.20630583	    175.67942972	     -0.33915355	      0.88415412	     -0.42741517	      0.32966869	      3.36437518	      5.25000905	     -2.46887080	     11.60391141	     -1.56351581	     27.79418902	    -14.93253028	     -7.82493558	    -42.06626693	      8.82898705	      3.86280623	     -5.34932177	     10.09649413	     14.88957399
      4.71000000	      4.53375594	      4.27939915	    175.62554580	     -0.34562861	      0.88353080	     -0.42742057	     -0.19958738	      3.41642308	      5.25461091	     -2.41135998	     11.97455122	     -1.67341652	     27.95437021	    -14.94718545	     -7.14013638	    -39.07878365	      8.69512090	      3.46915354	     -5.29722325	     10.08979120	     15.01480344
      4.72000000	      4.56317958	      4.38117293	    175.55284355	     -0.35211214	      0.88276862	     -0.42739354	     -0.66323173	      3.50051673	      5.26935627	     -2.37673079	     12.34331849	     -1.79374881	     28.10859217	    -15.01884542	     -6.39028107	    -36.01786109	      8.49637232	      2.98808535	     -5.19039183	     10.10567135	     15.15694152
      4.73000000	      4.64395754	      4.51794047	    175.44851929	     -0.35858787	      0.88188033	     -0.42736609	     -1.05588488	      3.62482590	      5.31592566	     -2.37414619	     12.69781582	     -1.92297805	     28.27238579	    -15.17129639	     -5.63955843	    -32.92844578	      8.19094457	      2.41138152	     -5.03529433	     10.15098213	     15.32814680
      4.74000000	      4.76215370	      4.66762705	    175.32447085	     -0.36508032	      0.88088188	     -0.42730324	     -1.37406976	      3.76375604	      5.35164075	     -2.44051589	     13.07789989	     -2.03207027	     28.43885428	    -15.37619272	     -4.93661441	    -29.84068415	      7.83487024	      1.92419415	     -4.84214671	     10.20428831	     15.49152816
      4.75000000	      4.92298992	      4.83791000	    175.16323633	     -0.37159554	      0.87977375	     -0.42727420	     -1.63255608	      3.92706620	      5.41386502	     -2.53663371	     13.45631790	     -2.12624402	     28.63567601	    -15.65559880	     -4.36151424	    -26.81833081	      7.38541600	      1.48799009	     -4.60423316	     10.26445180	     15.70125607
      4.76000000	      5.10422076	      5.03111308	    174.96690413	     -0.37813366	      0.87859114	     -0.42725314	     -1.84548291	      4.11355747	      5.52486864	     -2.68569063	     13.83831385	     -2.19909274	     28.85297534	    -15.99974666	     -3.97058693	    -23.90489317	      6.88695462	      1.15550504	     -4.35014805	     10.34047708	     15.90711945
      4.77000000	      5.29635713	      5.22763230	    174.74707230	     -0.38472304	      0.87734581	     -0.42718194	     -2.03065729	      4.29645375	      5.66005630	     -2.87404811	     14.23968448	     -2.24652607	     29.09059938	    -16.36410401	     -3.78565568	    -21.13937862	      6.36829033	      0.98754514	     -4.08694379	     10.41544696	     16.10665282
      4.78000000	      5.48626746	      5.40852217	    174.51027676	     -0.39139868	      0.87605196	     -0.42703956	     -2.20381453	      4.45230335	      5.80881347	     -3.10030544	     14.67069192	     -2.26401548	     29.33746067	    -16.71063640	     -3.81053658	    -18.55821625	      5.85436775	      1.03992157	     -3.81952429	     10.46410924	     16.29685201
      4.79000000	      5.65620028	      5.55280654	    174.25344164	     -0.39818380	      0.87473066	     -0.42679327	     -2.37904539	      4.55275482	      5.97346588	     -3.37247518	     15.14950995	     -2.24218156	     29.56691345	    -17.00463213	     -4.03359313	    -16.18950977	      5.39343096	      1.41957541	     -3.56663785	     10.46561121	     16.47879525
      4.80000000	      5.77484014	      5.71185360	    174.00517443	     -0.40508886	      0.87341076	     -0.42641444	     -2.61662230	      4.64931414	      6.14894285	     -3.65106143	     15.63460992	     -2.15091333	     29.76816042	    -17.27692616	     -4.33145452	    -14.08688531	      5.01119631	      2.28170975	     -3.36745519	     10.47528710	     16.62420134
      4.81000000	      5.85731446	      5.83735800	    173.76252371	     -0.41212733	      0.87205531	     -0.42586060	     -2.87649277	      4.68929991	      6.30792048	     -3.97222558	     16.15957637	     -2.03837883	     29.94517102	    -17.47483765	     -4.64296620	    -12.27672342	      4.75175052	      3.25084055	     -3.19646595	     10.44326032	     16.73556242
      4.82000000	      5.87822149	      5.95689999	    173.53153796	     -0.41930206	      0.87068563	     -0.42514206	     -3.19714767	      4.70070658	      6.45404279	     -4.31998897	     16.72229170	     -1.90372347	     30.08285738	    -17.63178475	     -4.87892132	    -10.81449614	      4.63184759	      4.30907797	     -3.08782660	     10.39618694	     16.81474770
